<svg xmlns="http://www.w3.org/2000/svg" xmlns:xlink="http://www.w3.org/1999/xlink" width="1.71in" height="0.4in" viewBox="0 0 123 29"><defs><style>.cls-1{isolation:isolate;}.cls-2{fill:#de212a;}.cls-3{mix-blend-mode:multiply;fill:url(#linear-gradient);}.cls-4{fill:url(#linear-gradient-2);}.cls-5{fill:#045596;}</style><linearGradient id="linear-gradient" x1="14.94" y1="24.26" x2="25.34" y2="13.87" gradientUnits="userSpaceOnUse"><stop offset="0.1" stop-color="#fff"/><stop offset="1"/></linearGradient><linearGradient id="linear-gradient-2" x1="11.47" y1="-0.06" x2="28.59" y2="17.23" gradientUnits="userSpaceOnUse"><stop offset="0" stop-color="#015595"/><stop offset="0.49" stop-color="#2391cb"/><stop offset="1" stop-color="#005594"/></linearGradient></defs><title>things-logo</title><g class="cls-1"><g id="Layer_1" data-name="Layer 1"><polygon class="cls-2" points="18.87 14.57 4.33 28.99 15.99 28.99 30.52 14.57 18.87 14.57"/><polygon class="cls-3" points="18.87 14.57 4.33 28.99 15.99 28.99 30.52 14.57 18.87 14.57"/><path class="cls-4" d="M25.72,6.53a3.26,3.26,0,1,0-3.26-3.26A3.26,3.26,0,0,0,25.72,6.53Zm0-4.64a1.39,1.39,0,1,1-1.39,1.38A1.38,1.38,0,0,1,25.72,1.89ZM2.91,1A2.29,2.29,0,1,0,5.2,3.3,2.3,2.3,0,0,0,2.91,1Zm0,3.27a1,1,0,1,1,1-1A1,1,0,0,1,2.91,4.28ZM18.67,2.82H7L4.34.16H16Zm3.38,3.35-5.91,5.69L8,3.78H19.64Zm8.47,8.4-5.79,5.75-7.91-7.78,5.91-5.69ZM13.76,12.4A2.29,2.29,0,1,0,16,14.68,2.28,2.28,0,0,0,13.76,12.4Zm0,3.26a1,1,0,1,1,1-1A1,1,0,0,1,13.76,15.66Z"/><path class="cls-5" d="M36,5.69h9.48V8.18h-3.2V23.1H39.17V8.18H36Z"/><path class="cls-5" d="M52.36,23.1H49.29V5.69h3.07v7.46h3.49V5.69H59V23.1H55.85V15.64H52.36Z"/><path class="cls-5" d="M63.72,5.69h3.07V23.1H63.72Z"/><path class="cls-5" d="M74.26,10.49V23.1H71.5V5.69h3.85L78.5,16.11V5.69h2.73V23.1H78.08Z"/><path class="cls-5" d="M90.55,13.4h4.3v5.52c0,2.79-1.57,4.38-4.58,4.38s-4.57-1.59-4.57-4.38V9.87c0-2.79,1.56-4.38,4.57-4.38s4.58,1.59,4.58,4.38v1.69H91.94V9.7c0-1.25-.61-1.72-1.58-1.72s-1.59.47-1.59,1.72v9.4c0,1.24.61,1.69,1.59,1.69s1.58-.45,1.58-1.69V15.89H90.55Z"/><path class="cls-5" d="M103.47,5.49c3,0,4.51,1.59,4.51,4.38v.55h-2.9V9.7c0-1.25-.55-1.72-1.53-1.72S102,8.45,102,9.7c0,3.58,6,4.25,6,9.22,0,2.79-1.56,4.38-4.57,4.38s-4.58-1.59-4.58-4.38V17.85h2.9V19.1c0,1.24.62,1.69,1.59,1.69s1.59-.45,1.59-1.69c0-3.58-6-4.26-6-9.23C99,7.08,100.48,5.49,103.47,5.49Z"/><polygon class="cls-5" points="121.91 5.49 121.91 9.45 119.41 9.45 119.41 5.49 118.23 5.49 118.23 14.46 119.41 14.46 119.41 10.5 121.91 10.5 121.91 14.46 123.08 14.46 123.08 5.49 121.91 5.49"/><path class="cls-5" d="M115,5.49a2.23,2.23,0,0,0-2.34,2.08v6.89h1.18V11.32H115a2.2,2.2,0,0,0,2.25-2.07V7.57A2.23,2.23,0,0,0,115,5.49Zm1.16,3.75a1.1,1.1,0,0,1-1.16,1h-1.16V7.57a1.17,1.17,0,0,1,2.32,0Z"/></g></g></svg>